Patient4_TMGait_0pt7_01_left_11_EMG.mot
version=1
nRows=23
nColumns=33
inDegrees=no
endheader
time	1LAddLong	2LGlutMax	3LGlutMed	4LIliopsoas	5LSemiMemb	6LBicFemLong	7LRecFem	8LVastMed	9LVastLat	10LGasMed	11LTibAnt	12lTibPost	13LPeroneusLong	14LSol	15LExtDigLong	16LFlexDigLong	17RAddLong	18RGlutMax	19RGlutMed	20RIliopsoas	21RSemiMemb	22RBicFemLong	23RRecFem	24RVastMed	25RVastLat	26RGasMed	27RTibAnt	28RTibPost	29RPeroneusLong	30RSol	31RExtDigLong	32RFlexDigLong
13.843	0.016479	0.40588	-0.085907	-0.003052	-0.01358	-0.014343	-0.041809	0.001526	0.13046	-0.043945	0.019836	-0.007019	-0.063171	-0.014648	0.073853	0.02243	0.009155	-0.25818	-0.03006	-0.224	-0.13168	-0.10956	-0.43198	-0.086365	0.2803	-0.005341	-0.16266	-0.01236	-2.2499	-0.18967	0.010986	-0.00824
13.844	0.012512	0.47104	-0.09491	-0.003967	-0.00351	-0.021973	-0.0383	0.006866	0.12726	-0.028992	0.015411	0.002747	-0.03952	0.048523	0.074768	0.01297	0.019379	-0.13657	-0.32318	-0.090027	-0.19257	-0.098114	-0.36896	-0.2504	0.30762	0.007629	-0.21515	-0.005188	-2.7711	-0.25726	0.011902	-0.006256
13.845	0.00824	0.49332	-0.10422	0.010223	0.006104	-0.015717	-0.042267	0.00885	0.12421	-0.024414	0.015411	0.005951	-0.030518	0.112	0.075989	0.014954	0.027161	-0.21774	-0.23315	0.086975	-0.16388	-0.078125	-0.36697	-0.006561	0.33295	0.004883	-0.062714	-0.00824	-1.3251	-0.093689	0.007477	-0.007019
13.846	0.004578	0.48294	-0.16785	0.013275	-0.031433	-0.014343	-0.032654	0.00946	0.1088	-0.016937	0.027771	-0.009766	0.029602	0.049133	0.055695	0.005951	0.021667	-0.32577	0.3479	0.29007	-0.14206	0.024261	-0.33066	0.14221	0.13611	0.009308	-0.22293	-0.00412	1.6628	0.086517	0.013733	-0.003662
13.847	0.009308	0.4744	-0.12848	0.010376	-0.035553	0.004272	-0.041504	-0.000305	0.095062	-0.03479	0.016174	-0.007782	0.045319	-0.007629	0.033875	0.01358	0.003967	-0.16205	1.0712	0.3656	-0.044556	0.054321	-0.30228	0.20172	-0.043335	0.003357	-0.20371	-0.011902	0.8818	-0.037384	0.011597	0.000763
13.848	0.011902	0.44784	-0.051117	-0.000153	-0.055389	-0.028687	-0.058594	0.006256	0.10422	-0.027924	0.018921	0.016479	0.078735	0.010681	0.030518	0.006561	0.004425	-0.21133	0.15457	0.3479	0.092621	-0.012207	-0.12558	0.090027	0.005951	-0.011292	-0.20874	-0.012207	-0.055695	0.086212	0.012054	0.000458
13.849	0.019226	0.43335	-0.01358	0.02533	0.042725	-0.039215	-0.057983	0.002289	0.10635	-0.019531	0.00061	0.006104	0.14526	0.018158	0.041809	-0.000305	-0.00946	-0.18234	-0.93521	0.19241	0.090332	-0.025024	-0.068665	-0.052185	0.067902	-0.012665	-0.31738	-0.011444	-0.41153	0.14511	0.005646	-0.007629
13.85	0.021515	0.40451	0.13687	0.012817	0.069275	-0.003357	-0.064697	-0.001221	0.11185	-0.00946	-0.007629	-0.007782	0.10681	-0.051117	0.03479	0.000305	-0.006104	-0.21072	-0.85846	-0.14938	0.059052	-0.089874	0.12436	-0.11337	0.18921	-0.029602	-0.13062	-0.00946	0.08728	0.34668	0.006409	-0.00061
13.851	0.022278	0.38711	0.13489	0.002899	-0.008392	0.001526	-0.073242	0.001068	0.10147	-0.001068	-0.02121	0.005035	0.065918	-0.11032	0.022888	-0.003204	-0.004425	-0.2449	-0.7608	-0.33539	0.012054	-0.084839	0.22888	-0.023499	0.26413	-0.029755	0.050812	-0.005951	0.13611	0.28641	0.010071	-0.002899
13.852	0.026398	0.31815	0.074921	0.000305	-0.089111	-0.070648	-0.081635	0.002289	0.098572	-0.010071	-0.005341	0.003815	0.048523	-0.085449	0.003967	0.000458	0.005341	-0.32486	0.07431	-0.31708	-0.015717	-0.085144	0.3035	-0.085754	0.28473	-0.02121	0.12589	-0.005798	-0.33096	0.22018	0.009918	-0.006714
13.853	0.014496	0.37323	0.069122	-0.001373	-0.043182	-0.052338	-0.045013	0.005035	0.095367	-0.028534	-0.00412	-0.00946	0.046692	-0.038147	-0.001831	0.009766	0.001984	-0.25269	1.1005	-0.10361	-0.007629	-0.051575	0.28656	-0.055695	0.13825	-0.011749	0.21347	-0.004883	-0.44434	0.19852	0.004425	-0.00824
13.854	0.019684	0.40955	0.01297	-0.011292	0.018616	-0.037079	-0.051117	0.004425	0.088348	-0.025024	0.011902	0.014801	0.06012	0.035706	0.00351	-0.005798	-0.010986	-0.18326	1.2349	0.29923	-0.003357	-0.06073	0.41336	-0.036774	-0.21057	-0.016632	0.22903	0.001984	0.088043	0.21515	0.002441	-0.002594
13.855	0.01236	0.41901	0.014191	-0.00351	-0.026093	0.003815	-0.023956	0.009003	0.091248	-0.046692	0.008545	0.001526	0.06134	0.059357	-0.00473	-0.010681	-0.007935	-0.1738	0.80475	0.50934	-0.009155	-0.042114	0.12589	0.053864	-0.49255	-0.009766	0.17548	0.002747	-0.10529	0.22903	-0.001373	-0.011444
13.856	0.016632	0.39536	0.027924	0.007629	-0.032349	-0.014648	-0.043488	0.003204	0.09491	-0.052338	0.006409	0.016022	0.076447	0.060272	0.00885	-0.005798	-0.020447	-0.13977	0.41153	0.46661	-0.003967	-0.032806	-0.097961	0.20966	0.021057	-0.019836	0.12482	0.007935	-0.044861	0.16724	0.00412	-0.00824
13.857	0.014343	0.38834	-0.007477	0.019073	-0.012665	-0.013275	-0.045166	0.005188	0.093384	-0.040283	-0.015411	0.007477	0.077972	0.10529	-0.009003	-0.004425	-0.02121	-0.23086	-0.072479	0.1889	-0.011902	-0.061951	-0.31586	0.001221	0.25009	-0.01236	0.017395	-0.014343	-0.3241	-0.26062	0.006561	-0.001984
13.858	0.015259	0.39688	-0.036926	0.014954	0.030975	-0.001984	-0.050354	0.005341	0.09903	-0.025024	-0.009766	-0.013733	0.070496	0.12497	-0.038757	0.014343	-0.014496	-0.30609	-0.36514	0.058746	-0.018768	-0.087433	-0.23285	-0.018311	0.085144	-0.001526	0.22888	-0.112	-0.021667	-0.34592	0.004578	-0.010071
13.859	0.013733	0.36072	-0.059814	0.008698	0.020294	-0.019073	-0.06073	0.004425	0.098572	-0.020142	0.00824	0.007629	0.073853	0.12085	-0.030975	0.006409	-0.00824	-0.26535	0.215	-0.066681	-0.018005	-0.08255	-0.015106	0.062561	-0.57602	-0.014343	0.34332	0.031586	-0.00946	0.15137	0.004883	-0.012054
13.86	0.014954	0.35675	-0.052643	-0.00351	-0.020294	-0.015717	-0.048065	0.007629	0.10925	-0.019226	-0.019989	-0.007782	0.062103	0.095825	-0.036926	0.008087	-0.015259	-0.2388	0.40573	-0.005798	-0.011597	-0.071411	0.096436	0.085144	-0.56168	-0.015564	0.2298	0.026245	0.046234	0.17212	0.00061	-0.006561
13.861	0.0177	0.37857	-0.092316	0.003967	-0.046234	-0.025177	-0.069733	0.001984	0.087433	-0.006561	0.001373	0.012512	0.049286	0.04776	-0.019226	0.014496	-0.009003	-0.31845	0.44876	0.024109	-0.008087	-0.051575	0.27039	-0.010376	-0.31799	0.008087	-0.060577	0.000153	0.30289	0.048523	0.000458	-0.009918
13.862	0.012054	0.36987	-0.11948	0.010529	-0.013123	-0.007477	-0.064392	0.001068	0.075684	-0.006866	0.001678	-0.012054	0.058289	-0.15823	0.000305	0.007782	-0.011292	-0.24368	0.27832	0.007324	-0.010681	-0.066986	0.28107	-0.030212	-0.19501	0.003967	-0.20187	-0.00473	-0.027618	-0.014954	0.000458	-0.014801
13.863	0.019989	0.36926	-0.15945	0.019531	-0.019073	-0.01358	-0.06546	-0.005493	0.073242	-0.010071	-0.010223	-0.015411	0.026245	-0.19394	0.000916	0.00946	-0.019684	-0.2359	0.1474	-0.052185	-0.007019	-0.041962	0.070953	0.085449	-0.12955	-0.007782	-0.00473	-0.004578	1.012	0.10712	0.006256	-0.002594
13.864	0.014191	0.34988	-0.088959	0.017853	-0.010986	-0.003662	-0.060425	0.006409	0.072632	-0.024261	-0.014496	-0.010223	0.018616	-0.10971	0.002441	-0.000916	0.001831	-0.26627	-0.20294	-0.054474	-0.014038	-0.082703	-0.064087	0.14969	-0.098419	-0.000916	0.4808	-0.001984	0.46509	0.10605	0.002899	-0.006409
13.865	0.05188	0.34714	-0.000916	0.008392	0.024872	0.007935	-0.072174	0.004578	0.070496	-0.007629	-0.016327	0.003052	0.026093	-0.19516	0.006409	0.020905	-0.00885	-0.24719	-0.29205	-0.056305	-0.008392	-0.082092	-0.20203	0.29297	-0.067902	0.008698	0.61935	-0.006256	-0.45075	0.04776	0.002747	-0.003052
